{
    "asset": {
        "version": "2.0",
        "generator": "Open Asset Import Library (assimp v3.1.137539927)"
    },
    "accessors": [
        {
            "bufferView": 0,
            "byteOffset": 0,
            "componentType": 5126,
            "count": 64,
            "type": "VEC3",
            "max": [
                1.0,
                1.0,
                1.0
            ],
            "min": [
                -1.0,
                -1.0,
                -1.0
            ]
        },
        {
            "bufferView": 1,
            "byteOffset": 0,
            "componentType": 5126,
            "count": 64,
            "type": "VEC3",
            "max": [
                0.9672816395759583,
                0.9672816395759583,
                0.9672816395759583
            ],
            "min": [
                -0.9672816395759583,
                -0.9672816395759583,
                -0.9672816395759583
            ]
        },
        {
            "bufferView": 2,
            "byteOffset": 0,
            "componentType": 5126,
            "count": 64,
            "type": "VEC4",
            "max": [
                1.0,
                1.0,
                1.0,
                1.0
            ],
            "min": [
                -0.9531033039093018,
                -0.9817131757736206,
                -0.9688242673873901,
                -0.9607577323913574
            ]
        },
        {
            "bufferView": 3,
            "byteOffset": 0,
            "componentType": 5126,
            "count": 64,
            "type": "VEC2",
            "max": [
                0.9989998936653137,
                0.999000072479248
            ],
            "min": [
                0.0009999051690101624,
                0.018182456493377687
            ]
        },
        {
            "bufferView": 4,
            "byteOffset": 0,
            "componentType": 5123,
            "count": 324,
            "type": "SCALAR",
            "max": [
                63.0
            ],
            "min": [
                0.0
            ]
        }
    ],
    "buffers": [
        {
            "byteLength": 3720,
            "uri": "Buchstabenklotz_LP.bin"
        }
    ],
    "bufferViews": [
        {
            "buffer": 0,
            "byteOffset": 0,
            "byteLength": 768,
            "target": 34962
        },
        {
            "buffer": 0,
            "byteOffset": 768,
            "byteLength": 768,
            "target": 34962
        },
        {
            "buffer": 0,
            "byteOffset": 1536,
            "byteLength": 1024,
            "target": 34962
        },
        {
            "buffer": 0,
            "byteOffset": 2560,
            "byteLength": 512,
            "target": 34962
        },
        {
            "buffer": 0,
            "byteOffset": 3072,
            "byteLength": 648,
            "target": 34963
        }
    ],
    "materials": [
        {
            "name": "DefaultMaterial"
        }
    ],
    "meshes": [
        {
            "name": "Cube.001",
            "primitives": [
                {
                    "mode": 4,
                    "material": 0,
                    "indices": 4,
                    "attributes": {
                        "POSITION": 0,
                        "NORMAL": 1,
                        "TANGENT": 2,
                        "TEXCOORD_0": 3
                    }
                }
            ]
        }
    ],
    "nodes": [
        {
            "name": "Buchstabenklotz_LP",
            "matrix": [
                1.0,
                0.0,
                0.0,
                0.0,
                0.0,
                1.0,
                0.0,
                0.0,
                0.0,
                0.0,
                1.0,
                0.0,
                0.0,
                1.0,
                0.0,
                1.0
            ],
            "mesh": 0
        }
    ],
    "scenes": [
        {
            "nodes": [
                0
            ]
        }
    ],
    "scene": 0
}