{
    "asset": {
        "version": "2.0",
        "generator": "Open Asset Import Library (assimp v3.1.137539927)"
    },
    "accessors": [
        {
            "bufferView": 0,
            "byteOffset": 0,
            "componentType": 5126,
            "count": 2540,
            "type": "VEC3",
            "max": [
                0.010832905769348145,
                0.7389812469482422,
                0.09340087324380875
            ],
            "min": [
                -2.0475025177001955,
                -0.767857551574707,
                -0.10046864300966263
            ]
        },
        {
            "bufferView": 1,
            "byteOffset": 0,
            "componentType": 5126,
            "count": 2540,
            "type": "VEC3",
            "max": [
                1.0,
                1.0,
                1.0
            ],
            "min": [
                -1.0,
                -1.0,
                -1.0
            ]
        },
        {
            "bufferView": 2,
            "byteOffset": 0,
            "componentType": 5126,
            "count": 2540,
            "type": "VEC4",
            "max": [
                1.0,
                1.0,
                1.0,
                1.0
            ],
            "min": [
                -1.0,
                -1.0,
                -1.0,
                -1.0
            ]
        },
        {
            "bufferView": 3,
            "byteOffset": 0,
            "componentType": 5126,
            "count": 2540,
            "type": "VEC2",
            "max": [
                0.6369620561599731,
                1.0
            ],
            "min": [
                0.0,
                9.5367431640625e-7
            ]
        },
        {
            "bufferView": 4,
            "byteOffset": 0,
            "componentType": 5123,
            "count": 14292,
            "type": "SCALAR",
            "max": [
                2539.0
            ],
            "min": [
                0.0
            ]
        }
    ],
    "buffers": [
        {
            "byteLength": 150504,
            "uri": "Curtain_LP.bin"
        }
    ],
    "bufferViews": [
        {
            "buffer": 0,
            "byteOffset": 0,
            "byteLength": 30480,
            "target": 34962
        },
        {
            "buffer": 0,
            "byteOffset": 30480,
            "byteLength": 30480,
            "target": 34962
        },
        {
            "buffer": 0,
            "byteOffset": 60960,
            "byteLength": 40640,
            "target": 34962
        },
        {
            "buffer": 0,
            "byteOffset": 101600,
            "byteLength": 20320,
            "target": 34962
        },
        {
            "buffer": 0,
            "byteOffset": 121920,
            "byteLength": 28584,
            "target": 34963
        }
    ],
    "materials": [
        {
            "name": "DefaultMaterial",
            "pbrMetallicRoughness": {
                "baseColorFactor": [
                    0.6000000238418579,
                    0.6000000238418579,
                    0.6000000238418579,
                    1.0
                ],
                "metallicFactor": 0.0
            }
        }
    ],
    "meshes": [
        {
            "name": "Curtain_LP",
            "primitives": [
                {
                    "mode": 4,
                    "material": 0,
                    "indices": 4,
                    "attributes": {
                        "POSITION": 0,
                        "NORMAL": 1,
                        "TANGENT": 2,
                        "TEXCOORD_0": 3
                    }
                }
            ]
        }
    ],
    "nodes": [
        {
            "name": "RootNode",
            "matrix": [
                0.009999999776482582,
                0.0,
                0.0,
                0.0,
                0.0,
                0.009999999776482582,
                0.0,
                0.0,
                0.0,
                0.0,
                0.009999999776482582,
                0.0,
                0.0,
                0.0,
                0.0,
                1.0
            ],
            "children": [
                1
            ]
        },
        {
            "name": "Curtain_LP",
            "matrix": [
                -0.000004371138857095502,
                -100.0,
                0.000005960463568044361,
                0.0,
                -0.000016292067812173629,
                -0.00000596046311329701,
                -100.0,
                0.0,
                100.0,
                -0.000004371139766590204,
                -0.000016292067812173629,
                0.0,
                0.0,
                0.0,
                0.0,
                1.0
            ],
            "mesh": 0
        }
    ],
    "scenes": [
        {
            "nodes": [
                0
            ]
        }
    ],
    "scene": 0
}