{
    "asset": {
        "version": "2.0",
        "generator": "Open Asset Import Library (assimp v3.1.137539927)"
    },
    "accessors": [
        {
            "bufferView": 0,
            "byteOffset": 0,
            "componentType": 5126,
            "count": 81,
            "type": "VEC3",
            "max": [
                1.0,
                0.13999998569488526,
                4.700000286102295
            ],
            "min": [
                -1.0,
                -0.13999998569488526,
                -4.700000286102295
            ]
        },
        {
            "bufferView": 1,
            "byteOffset": 0,
            "componentType": 5126,
            "count": 81,
            "type": "VEC3",
            "max": [
                0.8755753040313721,
                0.9177565574645996,
                0.9383825063705444
            ],
            "min": [
                -0.8755753040313721,
                -0.9238767623901367,
                -0.9383825063705444
            ]
        },
        {
            "bufferView": 2,
            "byteOffset": 0,
            "componentType": 5126,
            "count": 81,
            "type": "VEC4",
            "max": [
                1.0,
                1.0,
                1.0,
                1.0
            ],
            "min": [
                -0.9388594627380371,
                -0.9397185444831848,
                -0.9334152340888977,
                -0.9388594627380371
            ]
        },
        {
            "bufferView": 3,
            "byteOffset": 0,
            "componentType": 5126,
            "count": 81,
            "type": "VEC2",
            "max": [
                0.9989999532699585,
                0.9990000128746033
            ],
            "min": [
                0.0009999573230743409,
                0.5844928026199341
            ]
        },
        {
            "bufferView": 4,
            "byteOffset": 0,
            "componentType": 5123,
            "count": 324,
            "type": "SCALAR",
            "max": [
                80.0
            ],
            "min": [
                0.0
            ]
        }
    ],
    "buffers": [
        {
            "byteLength": 4536,
            "uri": "Ruler_LP_V2.bin"
        }
    ],
    "bufferViews": [
        {
            "buffer": 0,
            "byteOffset": 0,
            "byteLength": 972,
            "target": 34962
        },
        {
            "buffer": 0,
            "byteOffset": 972,
            "byteLength": 972,
            "target": 34962
        },
        {
            "buffer": 0,
            "byteOffset": 1944,
            "byteLength": 1296,
            "target": 34962
        },
        {
            "buffer": 0,
            "byteOffset": 3240,
            "byteLength": 648,
            "target": 34962
        },
        {
            "buffer": 0,
            "byteOffset": 3888,
            "byteLength": 648,
            "target": 34963
        }
    ],
    "materials": [
        {
            "name": "DefaultMaterial"
        }
    ],
    "meshes": [
        {
            "name": "Cube.001",
            "primitives": [
                {
                    "mode": 4,
                    "material": 0,
                    "indices": 4,
                    "attributes": {
                        "POSITION": 0,
                        "NORMAL": 1,
                        "TANGENT": 2,
                        "TEXCOORD_0": 3
                    }
                }
            ]
        }
    ],
    "nodes": [
        {
            "name": "Cube",
            "mesh": 0
        }
    ],
    "scenes": [
        {
            "nodes": [
                0
            ]
        }
    ],
    "scene": 0
}